<?xml version="1.0" encoding="utf-8"?>
<!-- Generator: Adobe Illustrator 21.0.1, SVG Export Plug-In . SVG Version: 6.00 Build 0)  -->
<svg version="1.1" id="Capa_1" xmlns="http://www.w3.org/2000/svg" xmlns:xlink="http://www.w3.org/1999/xlink" x="0px" y="0px"
	 viewBox="0 0 22.8 17.4" style="enable-background:new 0 0 22.8 17.4;" xml:space="preserve">
<style type="text/css">
	.st0{fill:#C52B2B;}
	.st1{fill:#333;}
</style>
<g>
	<path class="st0" d="M5.2,12.8C3.9,11.9,3,10.4,3,8.7C3,7,3.9,5.5,5.2,4.6c0.2-0.5,0.5-1,0.8-1.4c-0.3,0.1-0.7,0.3-1,0.4
		C4.9,3.7,4.8,3.7,4.7,3.7c-0.2,0-0.5-0.1-0.6-0.4C3.9,3.1,4,2.6,4.3,2.4c1-0.6,2.2-0.9,3.3-1C8,1.2,8.3,1,8.6,0.8
		c-0.2,0-0.4,0-0.6,0c-4.4,0-8,3.6-8,8c0,4.4,3.6,8,8,8c0.2,0,0.4,0,0.6,0C7.2,15.7,6,14.3,5.2,12.8z M0.8,8.7L0.8,8.7
		c0-1.3,0.3-2.5,1-3.6c0.2-0.3,0.6-0.5,1-0.3C3,5,3.1,5.4,2.9,5.8C2.4,6.6,2.2,7.6,2.2,8.7c0,0.4-0.3,0.7-0.7,0.7
		C1.1,9.4,0.8,9.1,0.8,8.7z M5.3,14.6C5.2,14.9,5,15,4.7,15c-0.1,0-0.2,0-0.4-0.1c-1.1-0.6-2-1.5-2.6-2.6c-0.2-0.3-0.1-0.8,0.3-1
		c0.3-0.2,0.8-0.1,1,0.3c0.5,0.9,1.2,1.6,2.1,2.1C5.4,13.9,5.5,14.3,5.3,14.6z"/>
</g>
<g>
	<g>
		<path class="st0" d="M14.1,0C9.3,0,5.4,3.9,5.4,8.7c0,4.8,3.9,8.7,8.7,8.7c4.8,0,8.7-3.9,8.7-8.7C22.8,3.9,18.9,0,14.1,0z M17,2.1
			c0.2-0.4,0.7-0.5,1.1-0.3c1.2,0.7,2.2,1.7,2.9,2.9c0.2,0.4,0.1,0.8-0.3,1.1c-0.1,0.1-0.3,0.1-0.4,0.1c-0.3,0-0.5-0.1-0.7-0.4
			c-0.6-1-1.4-1.8-2.3-2.3C16.9,3,16.7,2.5,17,2.1z M10.1,1.8c1.2-0.7,2.5-1.1,3.9-1.1c0,0,0,0,0,0c0.4,0,0.8,0.3,0.8,0.8
			c0,0.4-0.3,0.8-0.8,0.8c-1.1,0-2.2,0.3-3.2,0.9c-0.1,0.1-0.3,0.1-0.4,0.1c-0.3,0-0.5-0.1-0.7-0.4C9.7,2.5,9.8,2.1,10.1,1.8z
			 M14.1,3.3c3,0,5.4,2.4,5.4,5.4c0,3-2.4,5.4-5.4,5.4s-5.4-2.4-5.4-5.4C8.7,5.7,11.1,3.3,14.1,3.3z M6.2,8.7L6.2,8.7
			c0-1.4,0.4-2.7,1-3.9C7.5,4.4,8,4.2,8.3,4.4c0.4,0.2,0.5,0.7,0.3,1.1c-0.5,1-0.8,2-0.8,3.1c0,0.4-0.3,0.8-0.8,0.8
			C6.6,9.4,6.2,9.1,6.2,8.7z M11.2,15.2c-0.1,0.2-0.4,0.4-0.7,0.4c-0.1,0-0.3,0-0.4-0.1C9,14.8,8,13.8,7.3,12.6
			c-0.2-0.4-0.1-0.8,0.3-1.1c0.4-0.2,0.8-0.1,1.1,0.3c0.6,1,1.4,1.8,2.3,2.3C11.3,14.3,11.5,14.8,11.2,15.2z M18,15.5
			c-1.2,0.7-2.5,1.1-3.9,1.1c0,0,0,0,0,0c-0.4,0-0.8-0.3-0.8-0.8c0-0.4,0.3-0.8,0.8-0.8c1.1,0,2.2-0.3,3.2-0.8
			c0.4-0.2,0.8-0.1,1.1,0.3S18.4,15.2,18,15.5z M20.9,12.6c-0.1,0.2-0.4,0.4-0.7,0.4c-0.1,0-0.3,0-0.4-0.1c-0.4-0.2-0.5-0.7-0.3-1.1
			c0.6-1,0.8-2,0.8-3.2c0-0.4,0.3-0.8,0.8-0.8c0.4,0,0.8,0.3,0.8,0.8v0C22,10,21.6,11.4,20.9,12.6z"/>
		<path class="st1" d="M13.9,10.3c-0.6,0-1.1-0.2-1.4-0.4l-0.3,1c0.3,0.2,0.9,0.4,1.5,0.4v0.8h0.9v-0.9c1-0.2,1.6-0.8,1.6-1.6
			c0-0.8-0.4-1.3-1.5-1.6c-0.7-0.3-1-0.5-1-0.8c0-0.2,0.2-0.5,0.8-0.5c0.6,0,1,0.2,1.3,0.3l0.3-1c-0.3-0.1-0.7-0.3-1.3-0.3V5.1h-0.9
			v0.8c-0.9,0.2-1.5,0.8-1.5,1.6c0,0.8,0.6,1.3,1.6,1.6c0.6,0.2,0.9,0.4,0.9,0.8C14.7,10.2,14.4,10.3,13.9,10.3z"/>
	</g>
</g>
</svg>
